<svg width="48" height="48" viewBox="0 0 48 48" fill="none" xmlns="http://www.w3.org/2000/svg">
<path d="M36.02 34.38C39.44 31.18 41.58 26.64 41.58 21.58C41.58 11.86 33.7 4 24 4C14.3 4 6.42004 11.88 6.42004 21.58C6.42004 26.66 8.58004 31.2399 12.04 34.4399M16 29.1C14.16 27.14 13.02 24.5 13.02 21.58C13.02 15.52 17.94 10.6 24 10.6C30.06 10.6 34.98 15.52 34.98 21.58C34.98 24.5 33.84 27.12 32 29.1M28.26 22.68C29.04 19.4 26.18 16.5399 22.9 17.3199C21.36 17.6999 20.1 18.96 19.72 20.5C18.94 23.78 21.8 26.64 25.08 25.86C26.64 25.48 27.9 24.22 28.26 22.68ZM20.6 33.3199L17.72 36.9C15.44 39.76 17.46 43.98 21.12 43.98H26.86C30.52 43.98 32.5601 39.74 30.2601 36.9L27.38 33.3199C25.66 31.1399 22.34 31.1399 20.6 33.3199Z" stroke="#292D32" stroke-width="1.5" stroke-linecap="round" stroke-linejoin="round"/>
</svg>
