<svg width="97" height="96" xmlns="http://www.w3.org/2000/svg" xmlns:xlink="http://www.w3.org/1999/xlink" xml:space="preserve" overflow="hidden"><g transform="translate(-869 -12)"><g><g><g><g><path d="M880 67.8 883.7 68.7C884.3 68.9 884.8 69.3 885.1 69.9 886.8 73.8 889.4 77.3 892.6 80.2 892.9 80.5 893.2 80.9 893.3 81.4L894.8 90.5C895 91.5 895.8 92.2 896.8 92.2L903.4 92.2C904.4 92.2 905.2 91.5 905.4 90.5L905.9 87.3C906.7 87.5 907.5 87.7 908.3 87.8L909.1 87.9C910.4 88.1 911.8 88.2 913.1 88.2 915.8 88.2 918.6 87.8 921.2 87.1L921.8 90.5C922 91.5 922.8 92.2 923.8 92.2L930.4 92.2C931.4 92.2 932.2 91.5 932.4 90.5L933.9 81.4C934 80.9 934.2 80.5 934.6 80.2 934.9 79.9 935.2 79.6 935.5 79.4L936.4 78.6C941.5 73.5 945 67.1 945 60 945 58.3 944.8 56.7 944.4 55.1L944 53.8C945.4 53.3 946.8 53 948.3 53 947.6 54.2 947.1 55.5 947 56.8 946.8 58.4 947.3 59.9 948.2 61.1 949 62 950.2 62.5 951.4 62.4 953 62.3 954.5 61.3 955 59.7 955.9 57.6 955.4 55.2 953.8 53.5 953.3 53 952.8 52.5 952.2 52.2 953.7 51.7 955.4 51.5 957 51.7 957.6 51.7 958 51.3 958.1 50.8 958.1 50.2 957.7 49.8 957.2 49.7 953.8 49.5 951.5 50.1 950 51.2 947.8 50.7 945.5 50.9 943.4 51.8L943.2 51.2C938.5 40.1 925.4 32 913 32 908.7 32 904.4 33 900.5 34.8L888.2 29C888.1 28.9 887.9 28.9 887.8 28.9 887.2 28.9 886.8 29.3 886.8 29.9 886.8 30 886.8 30.1 886.8 30.2L890.8 41.5C890.5 41.8 890.2 42.2 889.8 42.6 889.8 42.6 889.7 42.7 889.7 42.7 887.8 44.9 886.2 47.4 885 50.1 884.8 50.7 884.2 51.2 883.6 51.3L880 52.2C878.2 52.6 876.9 54.3 877 56.1L877 63.9C877 65.7 878.2 67.3 880 67.8ZM949 57C949.1 55.7 949.6 54.5 950.4 53.5 951.2 53.9 951.9 54.4 952.4 55 953.4 56 953.8 57.6 953.2 59 953 59.8 952.2 60.4 951.4 60.4 950.8 60.4 950.1 60.2 949.7 59.7 949.1 59 948.9 58 949 57ZM879 56.1C878.9 55.2 879.6 54.4 880.4 54.2L884 53.3C885.2 53 886.3 52.1 886.7 50.9 887.7 48.6 889.1 46.5 890.7 44.6 891.8 43.4 892.9 42.3 894.2 41.3 894.6 41 894.7 40.3 894.3 39.9 894 39.5 893.3 39.4 892.9 39.8 892.9 39.8 892.6 40 892.3 40.3L889.4 32C889.4 32 889.4 32 889.4 32 889.4 32 889.4 32 889.4 32L899.5 36.8 900.3 37.2 901.1 36.8C905 34.9 909 34 913 34 924.8 34 937 41.7 941.3 52L942.5 55.7C942.9 57.1 943 58.6 943 60.1 943 66.4 939.9 72.7 934.1 78 932.2 79.7 929.7 81.6 929.6 81.6 929.2 81.9 929.1 82.6 929.4 83 929.6 83.2 929.9 83.4 930.2 83.4 930.4 83.4 930.6 83.3 930.8 83.2 930.8 83.2 931.1 82.9 931.6 82.6L930.3 90.2C930.3 90.2 930.3 90.3 930.3 90.3L923.7 90.3C923.7 90.3 923.7 90.3 923.7 90.2L923.1 86.8 922.7 84.6 920.6 85.2C918.1 85.9 915.6 86.2 913 86.2 911.5 86.2 910 86.1 908.5 85.8 906.3 85.4 904.2 84.7 902.1 83.9 901.6 83.7 901 83.9 900.8 84.4 900.6 84.9 900.8 85.5 901.3 85.7 901.9 86 902.8 86.3 903.8 86.6L903.9 87 903.4 90.1C903.4 90.2 903.4 90.2 903.4 90.2L896.8 90.2C896.8 90.2 896.8 90.1 896.8 90.1L895.3 81C895.1 80.2 894.7 79.4 894.1 78.8 891.1 76.1 888.7 72.8 887.1 69.2 886.6 68.2 885.7 67.4 884.5 67L884.4 67 884.3 67 880.6 66.1C879.7 65.9 879.1 65.1 879.1 64.1L879.1 56.1Z" fill="#000000" fill-rule="nonzero" fill-opacity="1"/><path d="M906.6 39.7C908.5 39.2 910.5 39 912.5 39 916.5 39.1 920.5 39.9 924.2 41.6 924.7 41.8 925.3 41.6 925.5 41.1 925.7 40.6 925.5 40 925 39.8L925 39.8C921.1 38 916.8 37.1 912.5 37.1 910.3 37.1 908.1 37.4 906 37.9 905.5 38 905.1 38.6 905.3 39.1 905.5 39.6 906 40 906.5 39.8 906.5 39.7 906.5 39.7 906.6 39.7Z" fill="#000000" fill-rule="nonzero" fill-opacity="1"/></g></g></g></g></g></svg>