<svg width="97" height="97" xmlns="http://www.w3.org/2000/svg" xmlns:xlink="http://www.w3.org/1999/xlink" xml:space="preserve" overflow="hidden"><g transform="translate(-725 -9)"><g><g><g><g><path d="M794 30 794 25C794 24.4477 793.552 24 793 24 792.448 24 792 24.4477 792 25L792 30 756 30 756 25C756 24.4477 755.552 24 755 24 754.448 24 754 24.4477 754 25L754 30 740 30 740 92 808 92 808 30ZM806 90 742 90 742 46 806 46ZM742 44 742 32 754 32 754 36C754 36.5523 754.448 37 755 37 755.552 37 756 36.5523 756 36L756 32 792 32 792 36C792 36.5523 792.448 37 793 37 793.552 37 794 36.5523 794 36L794 32 806 32 806 44Z" fill="#000000" fill-rule="nonzero" fill-opacity="1"/><path d="M767 84 800 84 800 52 748 52 748 84 767 84ZM767 82 767 74 781 74 781 82ZM767 64 781 64 781 72 767 72ZM765 72 750 72 750 64 765 64ZM783 64 798 64 798 72 783 72ZM783 82 783 74 798 74 798 82ZM798 54 798 62 783 62 783 54ZM781 54 781 62 767 62 767 54ZM765 54 765 62 750 62 750 54ZM750 82 750 74 765 74 765 82Z" fill="#000000" fill-rule="nonzero" fill-opacity="1"/></g></g></g></g></g></svg>