<svg width="141" height="149" viewBox="0 0 141 149" fill="none" xmlns="http://www.w3.org/2000/svg">
<path fill-rule="evenodd" clip-rule="evenodd" d="M70.9018 40.7304L72.4541 46.1078C71.1599 47.2012 60.0359 57.6818 59.3461 56.4968C59.2594 56.4058 40.1134 45.8343 27.1768 49.5705C13.0335 53.672 2.77066 69.3467 4.92673 89.2139C7.42775 111.816 41.4936 124.119 58.3108 108.444L61.5016 105.436C62.709 105.983 71.2467 110.266 72.6263 110.266C73.3167 110.266 73.4888 110.813 73.0579 111.907C63.14 137.971 104.019 159.935 124.458 139.43C136.705 127.126 130.84 95.4112 115.834 93.3153C110.573 92.5864 110.142 94.8649 114.626 99.6945C130.15 116.646 109.969 151.277 92.4621 137.697C73.4028 123.025 87.5468 93.2244 105.916 93.0418C108.417 93.0418 109.193 91.4923 107.296 90.3989C100.052 86.2982 89.3573 89.5791 81.0779 98.5102L76.0759 104.707C75.214 104.342 67.4515 101.061 65.1233 99.968L67.1073 94.7732C70.5569 85.6602 70.729 78.1869 67.4522 70.1673C65.0372 64.061 64.8645 63.2411 66.1586 62.4205C68.0559 61.2362 76.3354 54.6745 77.7149 53.5803L82.286 56.7703C106.261 73.5392 136.445 58.7752 136.359 30.2497C136.273 15.3956 125.148 7.55783 113.505 3.9125C78.5776 -6.84164 64.9512 20.4988 70.9018 40.7304ZM124.544 27.6985C124.544 54.5828 93.4113 66.522 84.787 42.9179C81.3373 33.348 82.889 -0.279909 110.142 8.46933C117.903 10.9297 124.544 17.8559 124.544 27.6985ZM58.3108 65.0634C65.3828 75.9994 59.691 98.3276 44.2535 106.621C35.2848 111.451 23.2969 105.163 19.7612 93.7707C16.6558 84.0197 19.9334 71.9896 25.5391 64.1519C35.6291 50.026 54.6884 59.5041 58.3108 65.0634Z" fill="#FF0055"/>
</svg>
